<svg xmlns="http://www.w3.org/2000/svg" viewBox="29 30 377.46 110">
  <g id="Bottom_Navigation" data-name="Bottom Navigation" transform="translate(29 30)">
    <rect id="Rectangle_183" data-name="Rectangle 183" width="119" height="5" rx="2.5" transform="translate(128.714 93)" fill="#4a4b4d"/>
    <path id="Union_4" data-name="Union 4" d="M3408,575H3033V518h-.714V483h114.75a22,22,0,0,1,21.8,19.006,54.018,54.018,0,0,0,104.411-.3A22.006,22.006,0,0,1,3295,483h113.75v35H3408v57h0Z" transform="translate(-3031.286 -483)" fill="#4a4b4d" opacity="0.11"/>
    <g id="Group_2272" data-name="Group 2272" transform="translate(0.714 -689)">
      <path id="Union_4-2" data-name="Union 4" d="M3408,575H3033V518h-.714V483h114.75a22,22,0,0,1,21.8,19.006,54.018,54.018,0,0,0,104.411-.3A22.006,22.006,0,0,1,3295,483h113.75v35H3408v57h0Z" transform="translate(-3033 224)" fill="#fff"/>
    </g>
  </g>
</svg>