<svg height="110" viewBox="0 0 378 110" width="378" xmlns="http://www.w3.org/2000/svg"><path d="m376.7 92h-375v-57h-.7v-35h114.7c2.7 0 5.3.5 7.8 1.4 2.4.9 4.7 2.3 6.7 4 2 1.8 3.7 3.8 4.9 6.1 1.3 2.4 2.1 4.9 2.4 7.5 3.1 11.5 9.9 21.7 19.4 28.9s21.1 11.1 33 11.1 23.4-4 32.9-11.3c9.4-7.3 16.1-17.5 19.2-29 .4-2.6 1.2-5.1 2.5-7.4 1.2-2.2 2.9-4.3 4.9-6 1.9-1.7 4.2-3 6.7-3.9 2.4-.9 5-1.4 7.6-1.4h113.8v35h-.8z" fill="#4a4b4d" opacity=".1"/><path d="m375.7 110h-375v-57h-.7v-35h114.7c2.7 0 5.3.5 7.8 1.4 2.4.9 4.7 2.3 6.7 4 2 1.8 3.7 3.8 4.9 6.1 1.3 2.4 2.1 4.9 2.4 7.5 3.1 11.5 9.9 21.7 19.4 28.9s21.1 11.1 33 11.1 23.4-4 32.9-11.3c9.4-7.3 16.1-17.5 19.2-29 .4-2.6 1.2-5.1 2.5-7.4 1.2-2.2 2.9-4.3 4.9-6 1.9-1.7 4.2-3 6.7-3.9 2.4-.9 5-1.4 7.6-1.4h113.8v35h-.8z" fill="#fff"/></svg>